Coordinates
version=1
nRows=13
nColumns=36
inDegrees=yes

Units are S.I. units (second, meters, Newtons, ...)
If the header above contains a line with 'inDegrees', this indicates whether rotational values are in degrees (yes) or radians (no).

endheader
time	pelvis_tilt	pelvis_list	pelvis_rotation	pelvis_tx	pelvis_ty	pelvis_tz	hip_flexion_r	hip_adduction_r	hip_rotation_r	knee_angle_r	knee_angle_r_beta	ankle_angle_r	subtalar_angle_r	mtp_angle_r	hip_flexion_l	hip_adduction_l	hip_rotation_l	knee_angle_l	knee_angle_l_beta	ankle_angle_l	subtalar_angle_l	mtp_angle_l	lumbar_extension	lumbar_bending	lumbar_rotation	arm_flex_r	arm_add_r	arm_rot_r	elbow_flex_r	pro_sup_r	arm_flex_l	arm_add_l	arm_rot_l	elbow_flex_l	pro_sup_l
      0.00000000	    -10.85933531	     -6.54712555	     -6.07294472	      0.70468709	      0.85310148	     -0.16372680	     39.48784131	     14.78816703	     -2.56819855	     52.76029037	      0.92084078	     18.93253613	     -8.44740527	     -6.74166629	     64.60207631	     -8.14563093	      7.88271337	     33.32593567	      0.58164730	      5.41328848	     -9.22378530	     -6.74166629	    -23.30289978	     11.98865292	      2.47794007	     73.54974811	    -11.72939880	     63.64837803	    124.31093170	     76.16298478	     62.87576493	     -8.54847596	     64.63082491	    124.93068372	     87.40307983
      0.01666670	    -14.19476169	     -8.31069001	     -9.19290818	      0.71203226	      0.83799281	     -0.15770076	     46.25161384	     17.52195855	     -5.68366152	     57.84980284	      1.00966953	     18.25509148	     -8.87572255	     -6.80386048	     69.55147482	    -11.66397477	     13.10856838	     31.71479509	      0.55352760	      4.71755013	     -7.39906202	     -6.80386048	    -22.78472104	     13.33117063	     10.13706766	     76.06474705	    -11.70940145	     73.03739002	    131.01512285	     89.30763834	     62.63963996	     -5.12099933	     64.67708242	    128.82038058	    104.93653465
      0.03333330	    -16.73589789	     -5.69569059	    -11.67299142	      0.71795438	      0.82427601	     -0.15286442	     51.55188664	     16.04942611	     -6.78558224	     63.74936804	      1.11263637	     24.83431877	     -4.63745763	     -6.83305794	     72.33899976	    -12.95748113	     12.17756190	     30.82038550	      0.53791720	      0.89815143	     -7.72040517	     -6.83305794	    -18.70696094	      9.92048339	     10.97049051	     72.24609249	     -9.93026288	     68.39444189	    131.52984142	     89.81430250	     60.69299480	     -4.77718573	     65.45623606	    128.04843102	    106.99835561
      0.05000000	    -19.18751381	     -3.00770783	    -12.26141703	      0.71483420	      0.80876152	     -0.14694826	     55.95143876	     14.59618564	     -6.67521208	     67.77563595	      1.18290800	     30.22755900	     -1.84084929	     -7.00003284	     75.62208192	    -12.71149399	     10.39514935	     31.81919287	      0.55534968	     -0.30868980	     -5.58481068	     -7.00003284	    -14.93639350	      6.67802456	     11.19328643	     70.22402435	    -10.48752630	     68.36521637	    131.21165385	     91.37655551	     60.38636547	     -4.81710471	     66.30435656	    126.58562569	    110.21216359
      0.06666670	    -21.34715232	     -1.29189503	    -11.93439181	      0.72413885	      0.79752212	     -0.14903960	     59.08539592	     13.73489522	     -6.41281517	     70.32944520	      1.22748038	     34.01369617	     -0.11527810	     -7.01291080	     78.46469885	    -12.08723709	      8.73810991	     32.58709816	      0.56875216	     -0.45166157	     -3.05397569	     -7.01291080	    -12.19898441	      5.11742725	     10.84872466	     68.99646086	    -11.46521041	     70.01865496	    131.26414234	     91.60305997	     59.42142678	     -4.72718789	     66.66408768	    126.73257989	    109.85824580
      0.08333330	    -23.08854787	     -0.49397187	    -11.40853193	      0.72255994	      0.78756731	     -0.15017452	     61.74651382	     13.24889689	     -6.34403099	     72.35096932	      1.26276263	     36.34052657	      0.97511117	     -7.04073114	     81.31782438	    -11.52579501	      8.13377810	     33.41923326	      0.58327565	     -0.62808680	     -1.18680606	     -7.04073114	    -10.47430377	      4.75379548	     10.56635037	     68.54228571	    -11.92998358	     70.20628154	    130.90436363	     91.13908340	     58.90169592	     -4.13779065	     65.85337660	    127.19968451	    109.12557516
      0.10000000	    -24.62109137	     -0.33923126	    -10.65549014	      0.71532118	      0.77860199	     -0.14865192	     64.43139845	     12.95073206	     -6.73509724	     74.23689710	      1.29567828	     37.76676151	      1.73543164	     -7.05036154	     84.19536563	    -10.85046431	      8.68716987	     34.25239632	      0.59781709	     -0.95657712	     -0.32798032	     -7.05036154	     -9.33787252	      4.89742790	      9.97276680	     68.73836664	    -11.65956968	     70.03722536	    130.17877387	     91.11948989	     59.63251895	     -3.95805517	     65.16711352	    127.32903104	    108.60041916
      0.11666670	    -25.82091706	     -0.54285383	    -10.01610108	      0.71358465	      0.76710321	     -0.15018705	     66.75185291	     12.79561601	     -7.32744886	     76.08886638	      1.32800124	     38.91316239	      2.30773530	     -7.06207819	     86.91905554	    -10.32014342	      9.84668354	     35.03103630	      0.61140692	     -1.33356423	     -0.39623397	     -7.06207819	     -8.58223873	      5.39916220	      9.42495542	     68.86080001	    -11.71379792	     70.81380957	    129.08810373	     90.87604972	     59.94378487	     -4.20397126	     65.29875512	    126.46387992	    107.85817435
      0.13333330	    -26.62304533	     -0.99154030	     -9.59639428	      0.70742611	      0.76169299	     -0.14796109	     68.66693412	     12.85003025	     -8.06200617	     77.66684375	      1.35554214	     39.38955866	      2.31622780	     -7.07373043	     89.12141678	    -10.02920838	     11.02820945	     35.42897956	      0.61835234	     -1.88114071	     -0.49839633	     -7.07373043	     -8.80506102	      6.14572299	      9.51965456	     69.76387173	    -12.54787484	     71.24554322	    126.86609763	     90.32126918	     60.78455147	     -4.70255529	     65.31395628	    125.48788350	    107.07615908
      0.15000000	    -27.14989303	     -1.54129093	     -9.39468592	      0.70631237	      0.75371497	     -0.14891761	     70.11032026	     13.03837014	     -8.75178537	     78.99508027	      1.37872424	     39.82520224	      2.39993482	     -7.17983587	     90.96383588	     -9.87715148	     12.24775251	     36.05128231	      0.62921358	     -2.23242597	     -0.61159723	     -7.17983587	     -9.39429354	      6.80755095	      9.33769541	     71.16699861	    -12.31816441	     71.88285943	    125.75710777	     84.46862857	     61.90255396	     -4.97879425	     64.62985718	    125.29423146	    101.40930080
      0.16666670	    -27.51594354	     -1.94048159	     -9.29069768	      0.70664973	      0.74910242	     -0.14933289	     71.12050090	     13.21329648	     -9.29020078	     80.03290799	      1.39683775	     40.23019015	      2.48346879	     -7.18893243	     92.35025280	     -9.74163320	     13.18924592	     36.71405453	      0.64078113	     -2.39036511	     -0.65179155	     -7.18893243	    -10.01184988	      7.23031411	      9.15026339	     71.65304201	    -12.04741756	     71.63302190	    126.11496644	     84.09304307	     62.86538984	     -4.39495345	     64.51946186	    125.61363346	    101.04938259
      0.18333330	    -27.87540740	     -2.34016284	     -9.26135808	      0.69899797	      0.74399123	     -0.14672445	     72.16048115	     13.32426920	    -10.04166338	     80.80696346	      1.41034757	     40.34043951	      2.39348900	     -7.19336587	     93.66836158	     -9.69419987	     14.06946154	     37.22940249	      0.64977565	     -2.57089286	     -0.54906042	     -7.19336587	    -10.85493588	      7.64573158	      9.26469988	     72.14529591	    -11.89846956	     71.68644890	    125.64086955	     83.89268985	     63.97186816	     -4.02305161	     65.14554535	    125.28993245	    101.07139508
      0.20000000	    -28.42787501	     -2.42203171	     -9.28500119	      0.69415476	      0.73214436	     -0.15111650	     73.75783907	     13.17419889	    -10.69269759	     82.03982927	      1.43186514	     40.57891509	      2.51805076	     -7.22713277	     95.51385594	     -9.47256215	     14.65861384	     38.30907908	      0.66861956	     -2.50146560	     -0.31405503	     -7.22713277	    -11.42122174	      7.96341569	     10.01353973	     73.72004848	    -13.17833300	     71.84941507	    125.85208532	     81.51064399	     65.58348995	     -3.31740337	     65.45092137	    124.83055208	     98.73032302
